<svg width="240" height="240" viewBox="0 0 240 240" fill="none" xmlns="http://www.w3.org/2000/svg" role="img" aria-label="CarePilot AI icon">
  <defs>
    <linearGradient id="cp-ring" x1="34" y1="20" x2="190" y2="216" gradientUnits="userSpaceOnUse">
      <stop offset="0" stop-color="#24D0EF"/>
      <stop offset="1" stop-color="#1557E8"/>
    </linearGradient>
    <linearGradient id="cp-face" x1="68" y1="72" x2="172" y2="168" gradientUnits="userSpaceOnUse">
      <stop offset="0" stop-color="#23C6F1"/>
      <stop offset="1" stop-color="#1A5DE8"/>
    </linearGradient>
    <linearGradient id="cp-ear" x1="0" y1="0" x2="1" y2="1">
      <stop offset="0" stop-color="#25D2F0"/>
      <stop offset="1" stop-color="#1557E8"/>
    </linearGradient>
    <filter id="cp-soft" x="24" y="22" width="192" height="198" filterUnits="userSpaceOnUse" color-interpolation-filters="sRGB">
      <feDropShadow dx="0" dy="8" stdDeviation="12" flood-color="#2A77FF" flood-opacity="0.18"/>
    </filter>
  </defs>

  <g filter="url(#cp-soft)">
    <path d="M36 118C36 70.5 74.5 32 122 32C169.5 32 208 70.5 208 118V150C208 170.9 191.9 188 171 188" stroke="url(#cp-ring)" stroke-width="14" stroke-linecap="round"/>
    <rect x="18" y="104" width="34" height="76" rx="14" fill="url(#cp-ear)"/>
    <rect x="192" y="104" width="34" height="76" rx="14" fill="url(#cp-ear)"/>
    <rect x="58" y="74" width="128" height="110" rx="30" fill="url(#cp-face)"/>
    <rect x="86" y="106" width="18" height="44" rx="9" fill="#EFFFFF"/>
    <rect x="140" y="106" width="18" height="44" rx="9" fill="#EFFFFF"/>
    <rect x="108" y="146" width="44" height="10" rx="5" fill="#EFFFFF" fill-opacity="0.95"/>
    <path d="M74 198H136" stroke="#1A63EA" stroke-width="16" stroke-linecap="round"/>
    <circle cx="146" cy="198" r="10" fill="#27CFF0"/>
  </g>
</svg>
